<svg
	xmlns="http://www.w3.org/2000/svg"
	xmlns:xlink="http://www.w3.org/1999/xlink"
	version="1.1"
	id="vettori"
	x="0px"
	y="0px"
	viewBox="0 0 355 63.5"
	style="enable-background:new 0 0 355 63.5;"
	xml:space="preserve"
>
					<polygon fill="#6EC6D6" points="0.8,47.5 15.4,63 355,47.3 " />
					<rect x="81.2" y="26.4" fill="#6EC6D6" width="7.8" height="13.4" />
					<rect x="107.6" y="1" fill="#6EC6D6" width="7.8" height="38.8" />
					<polygon fill="#6EC6D6" points="89.2,1 79.5,1 107.6,39.8 114,35.2 " />
					<rect x="282.4" y="26.4" fill="#6EC6D6" width="7.8" height="13.4" />
					<rect x="308.8" y="1.1" fill="#6EC6D6" width="7.8" height="38.8" />
					<polygon fill="#6EC6D6" points="290.4,1.1 280.7,1.1 308.8,39.8 315.2,35.2 " />
					<path
		fill="#6EC6D6"
		d="M257,1c-10.7,0-19.4,8.7-19.4,19.4s8.7,19.4,19.4,19.4s19.4-8.7,19.4-19.4c0,0,0,0,0,0C276.4,9.7,267.7,1,257,1  z M257,32.4c-6.6,0-12-5.4-12-12s5.4-12,12-12s12,5.4,12,12C269,27,263.6,32.4,257,32.4L257,32.4z"
	/>
					<path
		fill="#6EC6D6"
		d="M335.5,39.6c-2.8-0.3-5.5-1.4-7.7-3c-2.8-2.2-4.3-5.5-4.2-9.1h7.4c0.1,1.4,0.6,2.7,1.4,3.8  c0.8,0.9,1.9,1.6,3.1,1.9L335.5,39.6z M342.3,33.3c0.4-0.1,0.8-0.2,1.1-0.3c2.2-0.8,3.3-2.2,3.3-4.3c0-1.2-0.6-2.3-1.6-2.8  c-1.6-0.8-3.3-1.4-5.1-1.7l-4-0.9c-3.9-0.9-6.6-1.8-8.1-2.8c-2.5-1.7-3.7-4.4-3.7-8c-0.1-3.2,1.3-6.2,3.6-8.2  c2.2-1.8,4.8-2.9,7.6-3.1v6.5c-0.8,0.2-1.6,0.5-2.3,1c-1.2,0.7-1.9,2-1.8,3.4c0,1.2,0.7,2.4,1.8,2.9c1.6,0.7,3.2,1.2,4.9,1.5  l6.5,1.5c2.3,0.4,4.5,1.3,6.4,2.7c2.2,1.8,3.5,4.6,3.3,7.5c0.1,3.2-1.4,6.3-3.9,8.4c-2.3,1.8-5.1,2.9-8,3.2L342.3,33.3z M342.3,1.2  c2.3,0.4,4.5,1.4,6.3,2.8c2.8,2.1,4.2,5.1,4.4,9h-7.4c0-2-1.1-3.8-2.9-4.7l-0.3-0.1L342.3,1.2z"
	/>
					<path fill="#6EC6D6" d="M171.2,16.1v23.7H163V16.1H171.2z" />
					<path fill="#6EC6D6" d="M195.6,0.9v38.9h-8.2V0.9H195.6z" />
					<path fill="#6EC6D6" d="M171.2,0.9v8.2H163V0.9H171.2z" />
					<path fill="#6EC6D6" d="M189.9,24.4h-21.2v-8.2h21.2V24.4z" />
					<path fill="#6EC6D6" d="M230.9,9.2h-28.6V1h28.6L230.9,9.2z" />
					<path fill="#6EC6D6" d="M230.9,24.4h-28.6v-8.2h28.6L230.9,24.4z" />
					<path fill="#6EC6D6" d="M230.9,39.7h-28.6v-8.2h28.6L230.9,39.7z" />
					<polygon
		fill="#6EC6D6"
		points="156.9,0.9 156.9,9.1 143.3,9.1 143.3,39.9 135.1,39.9 135.2,9.1 135.2,0.9 "
	/>
					<polygon fill="#6EC6D6" points="128.2,0.9 128.2,9.1 121.6,9.1 121.6,0.9 " />
					<path
		fill="#6EC6D6"
		d="M53.1,39.9c-5.1-0.7-8.7-2.8-10.7-6.4c-1.3-2.4-2-5.7-2-10V0.9h8.6v22.6c-0.1,2.1,0.2,4.2,1,6.1  c0.6,1.4,1.7,2.4,3.2,2.9L53.1,39.9z M60.1,32.4c1.4-0.5,2.5-1.5,3.2-2.9c0.8-1.9,1.1-4,1-6.1V0.9h8.6v22.6c0,4.3-0.7,7.6-2,10  c-2,3.7-5.6,5.8-10.7,6.4L60.1,32.4z"
	/>
					<path
		fill="#6EC6D6"
		d="M24.9,0.9H0v8.6h22.3c1.6,0,2.9,1.3,2.9,2.9v2.2c0,1.6-1.3,2.9-2.9,2.9H0V26h24.9c4.9,0,8.9-4,8.9-8.9V9.8  C33.8,4.9,29.8,0.9,24.9,0.9z"
	/>
					<polygon fill="#6EC6D6" points="26.1,39.9 16.4,24.9 23.6,20.2 36.3,39.9 " />
</svg>
